# xmcd
#
# Track frame offsets:
#	150
#	12950
#	24597
#	37887
#	49295
#	62200
#	74580
#	85795
#	98545
#	110458
#	120823
#	132298
#	142113
#	152245
#	164090
#	176138
#	187048
#	197535
#	208535
#	218852
#	229070
#	240062
#	251805
#	261802
#	272152
#	282239
#	291987
#	302112
#	312282
#	322129
#	332859
#	342144
#
# Disc length: 4695 seconds
#
# Revision: 0
# Processed by: cddbd v1.5.1PL0 Copyright (c) Steve Scherf et al.
# Submitted via: audiograbber 1.83.01
#
DISCID=e4125520
DTITLE=Chet Atkins - Dizzy Strings
DYEAR=1900
DGENRE=
TTITLE0=Guitar Blues
TTITLE1=Canned Heat
TTITLE2=Bug Dance
TTITLE3=The Nashville Jump
TTITLE4=Barnyard Shuffle
TTITLE5=Dizzy Stings
TTITLE6=Galloping on The Guitar
TTITLE7=Dance of The Goldenrod
TTITLE8=Centipede
TTITLE9=Main Street Breakdown
TTITLE10=The Birth of The Blues
TTITLE11=Mountain Melody
TTITLE12=Hybrid Corn
TTITLE13=Jitterbug Waltz
TTITLE14=One Man Boogie
TTITLE15=Crazy Rhythm
TTITLE16=Blue Gypsy
TTITLE17=The Third Man Theme
TTITLE18=St-Louis Blues
TTITLE19=Nobody's Sweetheart
TTITLE20=Lover, Come Back To Me
TTITLE21=Hangover Blues
TTITLE22=Imagination
TTITLE23=Black Mountains Rag
TTITLE24=Oh, By Jingo
TTITLE25=Hello, My Baby
TTITLE26=The Bells of St-Mary's
TTITLE27=Country Gentleman
TTITLE28=Memphis Blues
TTITLE29=City Slicker
TTITLE30=Kentucky Derby
TTITLE31=Wildwood Flower
EXTD=
EXTT0=
EXTT1=
EXTT2=
EXTT3=
EXTT4=
EXTT5=
EXTT6=
EXTT7=
EXTT8=
EXTT9=
EXTT10=
EXTT11=
EXTT12=
EXTT13=
EXTT14=
EXTT15=
EXTT16=
EXTT17=
EXTT18=
EXTT19=
EXTT20=
EXTT21=
EXTT22=
EXTT23=
EXTT24=
EXTT25=
EXTT26=
EXTT27=
EXTT28=
EXTT29=
EXTT30=
EXTT31=
PLAYORDER=
